<svg width="417" height="189" viewBox="0 0 417 189" fill="none" xmlns="http://www.w3.org/2000/svg">
<circle cx="3.11194" cy="185.679" r="3.11194" transform="rotate(-90 3.11194 185.679)" fill="white" fill-opacity="0.3"/>
<circle cx="3.11194" cy="140.037" r="3.11194" transform="rotate(-90 3.11194 140.037)" fill="white" fill-opacity="0.3"/>
<circle cx="3.11194" cy="94.3955" r="3.11194" transform="rotate(-90 3.11194 94.3955)" fill="white" fill-opacity="0.3"/>
<circle cx="3.11194" cy="48.7538" r="3.11194" transform="rotate(-90 3.11194 48.7538)" fill="white" fill-opacity="0.3"/>
<circle cx="3.11194" cy="3.11194" r="3.11194" transform="rotate(-90 3.11194 3.11194)" fill="white" fill-opacity="0.3"/>
<circle cx="48.7537" cy="185.679" r="3.11194" transform="rotate(-90 48.7537 185.679)" fill="white" fill-opacity="0.3"/>
<circle cx="48.7537" cy="140.037" r="3.11194" transform="rotate(-90 48.7537 140.037)" fill="white" fill-opacity="0.3"/>
<circle cx="48.7537" cy="94.3955" r="3.11194" transform="rotate(-90 48.7537 94.3955)" fill="white" fill-opacity="0.3"/>
<circle cx="48.7537" cy="48.7538" r="3.11194" transform="rotate(-90 48.7537 48.7538)" fill="white" fill-opacity="0.3"/>
<circle cx="48.7537" cy="3.11194" r="3.11194" transform="rotate(-90 48.7537 3.11194)" fill="white" fill-opacity="0.3"/>
<circle cx="94.3956" cy="185.679" r="3.11194" transform="rotate(-90 94.3956 185.679)" fill="white" fill-opacity="0.3"/>
<circle cx="94.3956" cy="140.037" r="3.11194" transform="rotate(-90 94.3956 140.037)" fill="white" fill-opacity="0.3"/>
<circle cx="94.3955" cy="94.3956" r="3.11194" transform="rotate(-90 94.3955 94.3956)" fill="white" fill-opacity="0.3"/>
<circle cx="94.3955" cy="48.7538" r="3.11194" transform="rotate(-90 94.3955 48.7538)" fill="white" fill-opacity="0.3"/>
<circle cx="94.3955" cy="3.11194" r="3.11194" transform="rotate(-90 94.3955 3.11194)" fill="white" fill-opacity="0.3"/>
<circle cx="140.037" cy="185.679" r="3.11194" transform="rotate(-90 140.037 185.679)" fill="white" fill-opacity="0.3"/>
<circle cx="140.037" cy="140.037" r="3.11194" transform="rotate(-90 140.037 140.037)" fill="white" fill-opacity="0.3"/>
<circle cx="140.037" cy="94.3956" r="3.11194" transform="rotate(-90 140.037 94.3956)" fill="white" fill-opacity="0.3"/>
<circle cx="140.037" cy="48.7538" r="3.11194" transform="rotate(-90 140.037 48.7538)" fill="white" fill-opacity="0.3"/>
<circle cx="140.037" cy="3.11194" r="3.11194" transform="rotate(-90 140.037 3.11194)" fill="white" fill-opacity="0.3"/>
<circle cx="185.679" cy="185.679" r="3.11194" transform="rotate(-90 185.679 185.679)" fill="white" fill-opacity="0.3"/>
<circle cx="185.679" cy="140.037" r="3.11194" transform="rotate(-90 185.679 140.037)" fill="white" fill-opacity="0.3"/>
<circle cx="185.679" cy="94.3956" r="3.11194" transform="rotate(-90 185.679 94.3956)" fill="white" fill-opacity="0.3"/>
<circle cx="185.679" cy="48.7538" r="3.11194" transform="rotate(-90 185.679 48.7538)" fill="white" fill-opacity="0.3"/>
<circle cx="185.679" cy="3.11194" r="3.11194" transform="rotate(-90 185.679 3.11194)" fill="white" fill-opacity="0.3"/>
<circle cx="231.321" cy="185.679" r="3.11194" transform="rotate(-90 231.321 185.679)" fill="white" fill-opacity="0.3"/>
<circle cx="231.321" cy="140.037" r="3.11194" transform="rotate(-90 231.321 140.037)" fill="white" fill-opacity="0.3"/>
<circle cx="231.321" cy="94.3956" r="3.11194" transform="rotate(-90 231.321 94.3956)" fill="white" fill-opacity="0.3"/>
<circle cx="231.321" cy="48.7538" r="3.11194" transform="rotate(-90 231.321 48.7538)" fill="white" fill-opacity="0.3"/>
<circle cx="231.321" cy="3.11194" r="3.11194" transform="rotate(-90 231.321 3.11194)" fill="white" fill-opacity="0.3"/>
<circle cx="276.963" cy="185.679" r="3.11194" transform="rotate(-90 276.963 185.679)" fill="white" fill-opacity="0.3"/>
<circle cx="276.963" cy="140.037" r="3.11194" transform="rotate(-90 276.963 140.037)" fill="white" fill-opacity="0.3"/>
<circle cx="276.963" cy="94.3954" r="3.11194" transform="rotate(-90 276.963 94.3954)" fill="white" fill-opacity="0.3"/>
<circle cx="276.963" cy="48.7537" r="3.11194" transform="rotate(-90 276.963 48.7537)" fill="white" fill-opacity="0.3"/>
<circle cx="276.963" cy="3.11194" r="3.11194" transform="rotate(-90 276.963 3.11194)" fill="white" fill-opacity="0.3"/>
<circle cx="322.605" cy="185.679" r="3.11194" transform="rotate(-90 322.605 185.679)" fill="white" fill-opacity="0.3"/>
<circle cx="322.605" cy="140.037" r="3.11194" transform="rotate(-90 322.605 140.037)" fill="white" fill-opacity="0.3"/>
<circle cx="322.604" cy="94.3954" r="3.11194" transform="rotate(-90 322.604 94.3954)" fill="white" fill-opacity="0.3"/>
<circle cx="322.605" cy="48.7537" r="3.11194" transform="rotate(-90 322.605 48.7537)" fill="white" fill-opacity="0.3"/>
<circle cx="322.605" cy="3.11194" r="3.11194" transform="rotate(-90 322.605 3.11194)" fill="white" fill-opacity="0.3"/>
<circle cx="368.246" cy="185.679" r="3.11194" transform="rotate(-90 368.246 185.679)" fill="white" fill-opacity="0.3"/>
<circle cx="368.246" cy="140.037" r="3.11194" transform="rotate(-90 368.246 140.037)" fill="white" fill-opacity="0.3"/>
<circle cx="368.246" cy="94.3954" r="3.11194" transform="rotate(-90 368.246 94.3954)" fill="white" fill-opacity="0.3"/>
<circle cx="368.246" cy="48.7537" r="3.11194" transform="rotate(-90 368.246 48.7537)" fill="white" fill-opacity="0.3"/>
<circle cx="368.246" cy="3.11194" r="3.11194" transform="rotate(-90 368.246 3.11194)" fill="white" fill-opacity="0.3"/>
<circle cx="413.888" cy="185.679" r="3.11194" transform="rotate(-90 413.888 185.679)" fill="white" fill-opacity="0.3"/>
<circle cx="413.888" cy="140.037" r="3.11194" transform="rotate(-90 413.888 140.037)" fill="white" fill-opacity="0.3"/>
<circle cx="413.888" cy="94.3954" r="3.11194" transform="rotate(-90 413.888 94.3954)" fill="white" fill-opacity="0.3"/>
<circle cx="413.888" cy="48.7537" r="3.11194" transform="rotate(-90 413.888 48.7537)" fill="white" fill-opacity="0.3"/>
<circle cx="413.888" cy="3.11194" r="3.11194" transform="rotate(-90 413.888 3.11194)" fill="white" fill-opacity="0.3"/>
</svg>
